<svg xmlns="http://www.w3.org/2000/svg" width="2880" height="1440"><path d="M-21,1703L-237,1677L301,1752Z" fill="#7dbbe0" stroke="#7dbbe0" stroke-width="1.51"/><path d="M623,-271L969,-264L1178,-283Z" fill="#b1d1e6" stroke="#b1d1e6" stroke-width="1.51"/><path d="M-21,-319L623,-271L1178,-283Z" fill="#a0c9e3" stroke="#a0c9e3" stroke-width="1.51"/><path d="M1851,1721L1232,1695L2009,1743Z" fill="#b6d7ec" stroke="#b6d7ec" stroke-width="1.51"/><path d="M1232,1695L523,1750L2009,1743Z" fill="#b2d3e9" stroke="#b2d3e9" stroke-width="1.51"/><path d="M1835,-201L2353,-222L2576,-263Z" fill="#afd4ec" stroke="#afd4ec" stroke-width="1.51"/><path d="M1675,-210L1835,-201L2576,-263Z" fill="#bedbef" stroke="#bedbef" stroke-width="1.51"/><path d="M1178,-283L1675,-210L2576,-263Z" fill="#b9d8ed" stroke="#b9d8ed" stroke-width="1.51"/><path d="M2496,1687L2009,1743L2691,1690Z" fill="#a2ceea" stroke="#a2ceea" stroke-width="1.51"/><path d="M1178,-283L2576,-263L3106,-326Z" fill="#a7d0ea" stroke="#a7d0ea" stroke-width="1.51"/><path d="M-21,-319L1178,-283L3106,-326Z" fill="#b0d3e9" stroke="#b0d3e9" stroke-width="1.51"/><path d="M2576,-263L2797,-238L3106,-326Z" fill="#81bee2" stroke="#81bee2" stroke-width="1.51"/><path d="M3008,764L3088,1031L3155,760Z" fill="#bad9ed" stroke="#bad9ed" stroke-width="1.51"/><path d="M3106,-326L2919,-114L3175,-42Z" fill="#7cbbe0" stroke="#7cbbe0" stroke-width="1.51"/><path d="M2948,142L3136,224L3175,-42Z" fill="#9ac7e4" stroke="#9ac7e4" stroke-width="1.51"/><path d="M3088,1031L2972,1114L3224,1231Z" fill="#b7d8ee" stroke="#b7d8ee" stroke-width="1.51"/><path d="M2972,1114L2983,1282L3224,1231Z" fill="#afd4ec" stroke="#afd4ec" stroke-width="1.51"/><path d="M2983,1282L3128,1455L3224,1231Z" fill="#9ecce9" stroke="#9ecce9" stroke-width="1.51"/><path d="M3155,760L3088,1031L3224,1231Z" fill="#b7d7ed" stroke="#b7d7ed" stroke-width="1.51"/><path d="M3128,1455L3223,1624L3224,1231Z" fill="#8ac3e5" stroke="#8ac3e5" stroke-width="1.51"/><path d="M3126,334L2929,547L3229,639Z" fill="#b5d4e8" stroke="#b5d4e8" stroke-width="1.51"/><path d="M3008,764L3155,760L3229,639Z" fill="#b5d5ea" stroke="#b5d5ea" stroke-width="1.51"/><path d="M2929,547L3008,764L3229,639Z" fill="#bad7eb" stroke="#bad7eb" stroke-width="1.51"/><path d="M3136,224L3126,334L3229,639Z" fill="#afd1e6" stroke="#afd1e6" stroke-width="1.51"/><path d="M3175,-42L3136,224L3229,639Z" fill="#a4cce5" stroke="#a4cce5" stroke-width="1.51"/><path d="M3155,760L3224,1231L3229,639Z" fill="#b2d4eb" stroke="#b2d4eb" stroke-width="1.51"/><path d="M3128,1455L3017,1474L3223,1624Z" fill="#85c0e4" stroke="#85c0e4" stroke-width="1.51"/><path d="M3017,1474L2921,1674L3223,1624Z" fill="#81bee3" stroke="#81bee3" stroke-width="1.51"/><path d="M2919,-114L2948,142L3175,-42Z" fill="#92c4e3" stroke="#92c4e3" stroke-width="1.51"/><path d="M2885,-171L2919,-114L3106,-326Z" fill="#7fbde0" stroke="#7fbde0" stroke-width="1.51"/><path d="M2881,356L2929,547L3126,334Z" fill="#bcd7e9" stroke="#bcd7e9" stroke-width="1.51"/><path d="M2983,1282L3017,1474L3128,1455Z" fill="#99cae8" stroke="#99cae8" stroke-width="1.51"/><path d="M2948,142L2881,356L3126,334Z" fill="#b2d2e8" stroke="#b2d2e8" stroke-width="1.51"/><path d="M2948,142L3126,334L3136,224Z" fill="#a8cde6" stroke="#a8cde6" stroke-width="1.51"/><path d="M3008,764L2972,1114L3088,1031Z" fill="#bfdcef" stroke="#bfdcef" stroke-width="1.51"/><path d="M2797,-238L2885,-171L3106,-326Z" fill="#7dbce1" stroke="#7dbce1" stroke-width="1.51"/><path d="M2716,812L2972,1114L3008,764Z" fill="#c7e0f0" stroke="#c7e0f0" stroke-width="1.51"/><path d="M2716,812L2697,1041L2972,1114Z" fill="#cee4f3" stroke="#cee4f3" stroke-width="1.51"/><path d="M2929,547L2769,627L3008,764Z" fill="#c4dced" stroke="#c4dced" stroke-width="1.51"/><path d="M2983,1282L2775,1425L3017,1474Z" fill="#a3ceea" stroke="#a3ceea" stroke-width="1.51"/><path d="M2775,1425L2921,1674L3017,1474Z" fill="#94c7e7" stroke="#94c7e7" stroke-width="1.51"/><path d="M2919,-114L2770,-84L2948,142Z" fill="#9ac8e5" stroke="#9ac8e5" stroke-width="1.51"/><path d="M2972,1114L2764,1258L2983,1282Z" fill="#b8d9ef" stroke="#b8d9ef" stroke-width="1.51"/><path d="M2769,627L2716,812L3008,764Z" fill="#c9e0ef" stroke="#c9e0ef" stroke-width="1.51"/><path d="M2764,1258L2775,1425L2983,1282Z" fill="#b1d5ed" stroke="#b1d5ed" stroke-width="1.51"/><path d="M2697,1041L2764,1258L2972,1114Z" fill="#c8e1f2" stroke="#c8e1f2" stroke-width="1.51"/><path d="M2775,1425L2691,1690L2921,1674Z" fill="#94c6e7" stroke="#94c6e7" stroke-width="1.51"/><path d="M2653,207L2881,356L2948,142Z" fill="#b9d5ea" stroke="#b9d5ea" stroke-width="1.51"/><path d="M2770,-84L2653,207L2948,142Z" fill="#acd0e8" stroke="#acd0e8" stroke-width="1.51"/><path d="M2650,412L2769,627L2881,356Z" fill="#cadeed" stroke="#cadeed" stroke-width="1.51"/><path d="M2881,356L2769,627L2929,547Z" fill="#c5dced" stroke="#c5dced" stroke-width="1.51"/><path d="M2885,-171L2770,-84L2919,-114Z" fill="#90c4e4" stroke="#90c4e4" stroke-width="1.51"/><path d="M2653,207L2650,412L2881,356Z" fill="#c8ddec" stroke="#c8ddec" stroke-width="1.51"/><path d="M2797,-238L2770,-84L2885,-171Z" fill="#8fc3e4" stroke="#8fc3e4" stroke-width="1.51"/><path d="M1835,-201L2027,-165L2353,-222Z" fill="#bfdbef" stroke="#bfdbef" stroke-width="1.51"/><path d="M2573,125L2653,207L2770,-84Z" fill="#b4d4e9" stroke="#b4d4e9" stroke-width="1.51"/><path d="M2553,40L2573,125L2770,-84Z" fill="#b0d3e9" stroke="#b0d3e9" stroke-width="1.51"/><path d="M2472,1448L2691,1690L2775,1425Z" fill="#a7d0eb" stroke="#a7d0eb" stroke-width="1.51"/><path d="M2764,1258L2550,1284L2775,1425Z" fill="#bbdaf0" stroke="#bbdaf0" stroke-width="1.51"/><path d="M2576,-263L2770,-84L2797,-238Z" fill="#93c5e5" stroke="#93c5e5" stroke-width="1.51"/><path d="M2697,1041L2550,1284L2764,1258Z" fill="#cae2f3" stroke="#cae2f3" stroke-width="1.51"/><path d="M2519,568L2716,812L2769,627Z" fill="#d3e4f1" stroke="#d3e4f1" stroke-width="1.51"/><path d="M2650,412L2519,568L2769,627Z" fill="#d3e4f0" stroke="#d3e4f0" stroke-width="1.51"/><path d="M2550,1284L2472,1448L2775,1425Z" fill="#badaef" stroke="#badaef" stroke-width="1.51"/><path d="M2576,-263L2553,40L2770,-84Z" fill="#a2cde7" stroke="#a2cde7" stroke-width="1.51"/><path d="M2485,896L2697,1041L2716,812Z" fill="#d8e9f4" stroke="#d8e9f4" stroke-width="1.51"/><path d="M2472,1448L2496,1687L2691,1690Z" fill="#a3ceea" stroke="#a3ceea" stroke-width="1.51"/><path d="M2486,1019L2550,1284L2697,1041Z" fill="#d9eaf6" stroke="#d9eaf6" stroke-width="1.51"/><path d="M2485,896L2486,1019L2697,1041Z" fill="#deecf7" stroke="#deecf7" stroke-width="1.51"/><path d="M2519,568L2485,896L2716,812Z" fill="#dae9f3" stroke="#dae9f3" stroke-width="1.51"/><path d="M2329,1631L2009,1743L2496,1687Z" fill="#add3ec" stroke="#add3ec" stroke-width="1.51"/><path d="M2341,770L2485,896L2519,568Z" fill="#e2edf5" stroke="#e2edf5" stroke-width="1.51"/><path d="M2357,-11L2553,40L2576,-263Z" fill="#afd2ea" stroke="#afd2ea" stroke-width="1.51"/><path d="M2353,-222L2357,-11L2576,-263Z" fill="#aad1ea" stroke="#aad1ea" stroke-width="1.51"/><path d="M2444,444L2519,568L2650,412Z" fill="#d9e7f1" stroke="#d9e7f1" stroke-width="1.51"/><path d="M2444,444L2650,412L2653,207Z" fill="#d4e3ef" stroke="#d4e3ef" stroke-width="1.51"/><path d="M2573,125L2444,444L2653,207Z" fill="#cce0ee" stroke="#cce0ee" stroke-width="1.51"/><path d="M1406,1666L1232,1695L1851,1721Z" fill="#b8d7eb" stroke="#b8d7eb" stroke-width="1.51"/><path d="M2472,1448L2372,1480L2496,1687Z" fill="#b3d6ed" stroke="#b3d6ed" stroke-width="1.51"/><path d="M2308,669L2341,770L2519,568Z" fill="#e5eef5" stroke="#e5eef5" stroke-width="1.51"/><path d="M2486,1019L2276,1075L2550,1284Z" fill="#e1eef8" stroke="#e1eef8" stroke-width="1.51"/><path d="M2276,1075L2347,1335L2550,1284Z" fill="#d9eaf6" stroke="#d9eaf6" stroke-width="1.51"/><path d="M2289,382L2444,444L2573,125Z" fill="#dae7f0" stroke="#dae7f0" stroke-width="1.51"/><path d="M2292,101L2289,382L2573,125Z" fill="#d2e3ef" stroke="#d2e3ef" stroke-width="1.51"/><path d="M2553,40L2292,101L2573,125Z" fill="#c1dbec" stroke="#c1dbec" stroke-width="1.51"/><path d="M2372,1480L2329,1631L2496,1687Z" fill="#afd4ed" stroke="#afd4ed" stroke-width="1.51"/><path d="M2347,1335L2472,1448L2550,1284Z" fill="#c7e0f2" stroke="#c7e0f2" stroke-width="1.51"/><path d="M2357,-11L2292,101L2553,40Z" fill="#c1dbec" stroke="#c1dbec" stroke-width="1.51"/><path d="M2444,444L2308,669L2519,568Z" fill="#e1ecf4" stroke="#e1ecf4" stroke-width="1.51"/><path d="M2485,896L2276,1075L2486,1019Z" fill="#e7f1f9" stroke="#e7f1f9" stroke-width="1.51"/><path d="M2347,1335L2372,1480L2472,1448Z" fill="#c4dff2" stroke="#c4dff2" stroke-width="1.51"/><path d="M2341,770L2276,1075L2485,896Z" fill="#e9f2f8" stroke="#e9f2f8" stroke-width="1.51"/><path d="M1178,-283L1415,-212L1675,-210Z" fill="#b8d6ea" stroke="#b8d6ea" stroke-width="1.51"/><path d="M2289,382L2308,669L2444,444Z" fill="#e5edf4" stroke="#e5edf4" stroke-width="1.51"/><path d="M2117,474L2159,604L2289,382Z" fill="#eff3f6" stroke="#eff3f6" stroke-width="1.51"/><path d="M2084,140L2289,382L2292,101Z" fill="#dde9f2" stroke="#dde9f2" stroke-width="1.51"/><path d="M2289,382L2159,604L2308,669Z" fill="#ecf2f6" stroke="#ecf2f6" stroke-width="1.51"/><path d="M2055,749L2276,1075L2341,770Z" fill="#f2f6fa" stroke="#f2f6fa" stroke-width="1.51"/><path d="M2276,1075L2012,1218L2347,1335Z" fill="#e7f1f9" stroke="#e7f1f9" stroke-width="1.51"/><path d="M2353,-222L2129,-49L2357,-11Z" fill="#bbd9ed" stroke="#bbd9ed" stroke-width="1.51"/><path d="M2347,1335L2017,1434L2372,1480Z" fill="#cee4f4" stroke="#cee4f4" stroke-width="1.51"/><path d="M2017,1434L2329,1631L2372,1480Z" fill="#c3dff1" stroke="#c3dff1" stroke-width="1.51"/><path d="M2129,-49L2292,101L2357,-11Z" fill="#c7dfef" stroke="#c7dfef" stroke-width="1.51"/><path d="M2027,-165L2129,-49L2353,-222Z" fill="#bedbee" stroke="#bedbee" stroke-width="1.51"/><path d="M2012,1218L2017,1434L2347,1335Z" fill="#dfedf8" stroke="#dfedf8" stroke-width="1.51"/><path d="M2308,669L2055,749L2341,770Z" fill="#eff4f8" stroke="#eff4f8" stroke-width="1.51"/><path d="M2055,749L2029,1096L2276,1075Z" fill="#f9fbfd" stroke="#f9fbfd" stroke-width="1.51"/><path d="M2017,1434L2009,1743L2329,1631Z" fill="#c1def1" stroke="#c1def1" stroke-width="1.51"/><path d="M2029,1096L2012,1218L2276,1075Z" fill="#f6fafd" stroke="#f6fafd" stroke-width="1.51"/><path d="M2084,140L2117,474L2289,382Z" fill="#ecf1f4" stroke="#ecf1f4" stroke-width="1.51"/><path d="M2159,604L2055,749L2308,669Z" fill="#f2f6f8" stroke="#f2f6f8" stroke-width="1.51"/><path d="M2129,-49L2084,140L2292,101Z" fill="#d2e4f0" stroke="#d2e4f0" stroke-width="1.51"/><path d="M1918,1026L2029,1096L2055,749Z" fill="#fdfdfd" stroke="#fdfdfd" stroke-width="1.51"/><path d="M1868,899L1918,1026L2055,749Z" fill="#fcfcfc" stroke="#fcfcfc" stroke-width="1.51"/><path d="M1952,174L1937,350L2084,140Z" fill="#e8eff4" stroke="#e8eff4" stroke-width="1.51"/><path d="M2084,140L1937,350L2117,474Z" fill="#f2f4f6" stroke="#f2f4f6" stroke-width="1.51"/><path d="M2117,474L1937,581L2159,604Z" fill="#f7f8f8" stroke="#f7f8f8" stroke-width="1.51"/><path d="M1937,581L2055,749L2159,604Z" fill="#fafafa" stroke="#fafafa" stroke-width="1.51"/><path d="M1683,1656L1406,1666L1851,1721Z" fill="#bad9ed" stroke="#bad9ed" stroke-width="1.51"/><path d="M1889,1461L2009,1743L2017,1434Z" fill="#cce3f3" stroke="#cce3f3" stroke-width="1.51"/><path d="M2027,-165L1845,-106L2129,-49Z" fill="#c9e0f0" stroke="#c9e0f0" stroke-width="1.51"/><path d="M1952,174L2084,140L2129,-49Z" fill="#dce9f3" stroke="#dce9f3" stroke-width="1.51"/><path d="M1845,-106L1952,174L2129,-49Z" fill="#d4e5f1" stroke="#d4e5f1" stroke-width="1.51"/><path d="M1937,350L1937,581L2117,474Z" fill="#f7f7f7" stroke="#f7f7f7" stroke-width="1.51"/><path d="M1889,1461L1851,1721L2009,1743Z" fill="#c1ddf0" stroke="#c1ddf0" stroke-width="1.51"/><path d="M2012,1218L1903,1239L2017,1434Z" fill="#e7f1f9" stroke="#e7f1f9" stroke-width="1.51"/><path d="M1937,581L1868,899L2055,749Z" fill="#fafafa" stroke="#fafafa" stroke-width="1.51"/><path d="M1903,1239L1889,1461L2017,1434Z" fill="#ddecf7" stroke="#ddecf7" stroke-width="1.51"/><path d="M1903,1239L2012,1218L2029,1096Z" fill="#f3f8fc" stroke="#f3f8fc" stroke-width="1.51"/><path d="M1918,1026L1903,1239L2029,1096Z" fill="#fafcfe" stroke="#fafcfe" stroke-width="1.51"/><path d="M1835,-201L1845,-106L2027,-165Z" fill="#c3ddef" stroke="#c3ddef" stroke-width="1.51"/><path d="M1699,811L1868,899L1937,581Z" fill="#fafafa" stroke="#fafafa" stroke-width="1.51"/><path d="M932,1658L523,1750L1232,1695Z" fill="#b3d3e7" stroke="#b3d3e7" stroke-width="1.51"/><path d="M1683,1656L1851,1721L1889,1461Z" fill="#c3def0" stroke="#c3def0" stroke-width="1.51"/><path d="M1654,589L1699,811L1937,581Z" fill="#f8f8f8" stroke="#f8f8f8" stroke-width="1.51"/><path d="M1937,350L1706,321L1937,581Z" fill="#f5f5f5" stroke="#f5f5f5" stroke-width="1.51"/><path d="M1706,321L1654,589L1937,581Z" fill="#f6f6f6" stroke="#f6f6f6" stroke-width="1.51"/><path d="M1845,-106L1702,161L1952,174Z" fill="#dae7f1" stroke="#dae7f1" stroke-width="1.51"/><path d="M1706,321L1937,350L1952,174Z" fill="#edf1f4" stroke="#edf1f4" stroke-width="1.51"/><path d="M1702,161L1706,321L1952,174Z" fill="#e7eef2" stroke="#e7eef2" stroke-width="1.51"/><path d="M1657,1243L1889,1461L1903,1239Z" fill="#e4eff8" stroke="#e4eff8" stroke-width="1.51"/><path d="M1657,1243L1903,1239L1918,1026Z" fill="#f4f8fb" stroke="#f4f8fb" stroke-width="1.51"/><path d="M1658,991L1657,1243L1918,1026Z" fill="#fcfcfd" stroke="#fcfcfd" stroke-width="1.51"/><path d="M1868,899L1658,991L1918,1026Z" fill="#fcfcfc" stroke="#fcfcfc" stroke-width="1.51"/><path d="M1689,-114L1702,161L1845,-106Z" fill="#d0e2f0" stroke="#d0e2f0" stroke-width="1.51"/><path d="M1586,1529L1683,1656L1889,1461Z" fill="#c9e1f1" stroke="#c9e1f1" stroke-width="1.51"/><path d="M1657,1243L1586,1529L1889,1461Z" fill="#d9e9f4" stroke="#d9e9f4" stroke-width="1.51"/><path d="M1699,811L1658,991L1868,899Z" fill="#fbfbfb" stroke="#fbfbfb" stroke-width="1.51"/><path d="M1835,-201L1689,-114L1845,-106Z" fill="#c4ddee" stroke="#c4ddee" stroke-width="1.51"/><path d="M1675,-210L1689,-114L1835,-201Z" fill="#c1dbed" stroke="#c1dbed" stroke-width="1.51"/><path d="M1509,1485L1586,1529L1657,1243Z" fill="#d7e7f3" stroke="#d7e7f3" stroke-width="1.51"/><path d="M1504,1117L1657,1243L1658,991Z" fill="#f8f9fb" stroke="#f8f9fb" stroke-width="1.51"/><path d="M1654,589L1522,687L1699,811Z" fill="#f7f7f7" stroke="#f7f7f7" stroke-width="1.51"/><path d="M1453,835L1658,991L1699,811Z" fill="#f9f9f9" stroke="#f9f9f9" stroke-width="1.51"/><path d="M1689,-114L1519,41L1702,161Z" fill="#d4e4ef" stroke="#d4e4ef" stroke-width="1.51"/><path d="M1702,161L1455,243L1706,321Z" fill="#e8eef2" stroke="#e8eef2" stroke-width="1.51"/><path d="M1455,243L1475,368L1706,321Z" fill="#eef0f2" stroke="#eef0f2" stroke-width="1.51"/><path d="M1475,368L1654,589L1706,321Z" fill="#f4f4f4" stroke="#f4f4f4" stroke-width="1.51"/><path d="M1519,41L1455,243L1702,161Z" fill="#dfe9f0" stroke="#dfe9f0" stroke-width="1.51"/><path d="M1522,687L1453,835L1699,811Z" fill="#f8f8f8" stroke="#f8f8f8" stroke-width="1.51"/><path d="M1675,-210L1415,-212L1689,-114Z" fill="#bfdaec" stroke="#bfdaec" stroke-width="1.51"/><path d="M1415,-212L1519,41L1689,-114Z" fill="#c7deed" stroke="#c7deed" stroke-width="1.51"/><path d="M1434,1205L1509,1485L1657,1243Z" fill="#e2edf6" stroke="#e2edf6" stroke-width="1.51"/><path d="M1586,1529L1406,1666L1683,1656Z" fill="#c1dcee" stroke="#c1dcee" stroke-width="1.51"/><path d="M1475,368L1522,687L1654,589Z" fill="#f5f5f5" stroke="#f5f5f5" stroke-width="1.51"/><path d="M1504,1117L1434,1205L1657,1243Z" fill="#f0f5f9" stroke="#f0f5f9" stroke-width="1.51"/><path d="M1453,835L1504,1117L1658,991Z" fill="#fafafa" stroke="#fafafa" stroke-width="1.51"/><path d="M1475,368L1273,464L1522,687Z" fill="#f3f3f3" stroke="#f3f3f3" stroke-width="1.51"/><path d="M1509,1485L1406,1666L1586,1529Z" fill="#c7dfef" stroke="#c7dfef" stroke-width="1.51"/><path d="M1453,835L1198,1004L1504,1117Z" fill="#f9f9f9" stroke="#f9f9f9" stroke-width="1.51"/><path d="M1434,1205L1193,1427L1509,1485Z" fill="#dbe9f3" stroke="#dbe9f3" stroke-width="1.51"/><path d="M1415,-212L1228,1L1519,41Z" fill="#cadeed" stroke="#cadeed" stroke-width="1.51"/><path d="M1229,184L1455,243L1519,41Z" fill="#dfe8ef" stroke="#dfe8ef" stroke-width="1.51"/><path d="M1228,1L1229,184L1519,41Z" fill="#d6e4ee" stroke="#d6e4ee" stroke-width="1.51"/><path d="M1271,666L1453,835L1522,687Z" fill="#f6f6f6" stroke="#f6f6f6" stroke-width="1.51"/><path d="M1273,464L1271,666L1522,687Z" fill="#f4f4f4" stroke="#f4f4f4" stroke-width="1.51"/><path d="M1198,1004L1434,1205L1504,1117Z" fill="#f7f8f9" stroke="#f7f8f9" stroke-width="1.51"/><path d="M1193,1427L1406,1666L1509,1485Z" fill="#cadfef" stroke="#cadfef" stroke-width="1.51"/><path d="M1163,1295L1193,1427L1434,1205Z" fill="#e1ecf4" stroke="#e1ecf4" stroke-width="1.51"/><path d="M1215,858L1198,1004L1453,835Z" fill="#f7f7f7" stroke="#f7f7f7" stroke-width="1.51"/><path d="M1455,243L1273,464L1475,368Z" fill="#f1f2f2" stroke="#f1f2f2" stroke-width="1.51"/><path d="M1193,1427L1232,1695L1406,1666Z" fill="#c1dbec" stroke="#c1dbec" stroke-width="1.51"/><path d="M1271,666L1215,858L1453,835Z" fill="#f6f6f6" stroke="#f6f6f6" stroke-width="1.51"/><path d="M1229,184L1273,464L1455,243Z" fill="#ebeef0" stroke="#ebeef0" stroke-width="1.51"/><path d="M1198,1004L1163,1295L1434,1205Z" fill="#f0f4f7" stroke="#f0f4f7" stroke-width="1.51"/><path d="M1178,-283L1228,1L1415,-212Z" fill="#bed8ea" stroke="#bed8ea" stroke-width="1.51"/><path d="M1075,1059L1163,1295L1198,1004Z" fill="#f4f6f7" stroke="#f4f6f7" stroke-width="1.51"/><path d="M1178,-283L1057,-35L1228,1Z" fill="#c3daea" stroke="#c3daea" stroke-width="1.51"/><path d="M977,191L1011,437L1229,184Z" fill="#e7ebef" stroke="#e7ebef" stroke-width="1.51"/><path d="M1193,1427L1026,1541L1232,1695Z" fill="#c5dced" stroke="#c5dced" stroke-width="1.51"/><path d="M1018,677L1215,858L1271,666Z" fill="#f5f5f5" stroke="#f5f5f5" stroke-width="1.51"/><path d="M1018,677L1271,666L1273,464Z" fill="#f3f3f3" stroke="#f3f3f3" stroke-width="1.51"/><path d="M1011,437L1018,677L1273,464Z" fill="#f2f2f2" stroke="#f2f2f2" stroke-width="1.51"/><path d="M1229,184L1011,437L1273,464Z" fill="#f0f0f0" stroke="#f0f0f0" stroke-width="1.51"/><path d="M1006,863L1198,1004L1215,858Z" fill="#f6f6f6" stroke="#f6f6f6" stroke-width="1.51"/><path d="M1018,677L1006,863L1215,858Z" fill="#f4f4f4" stroke="#f4f4f4" stroke-width="1.51"/><path d="M1228,1L1057,-35L1229,184Z" fill="#d3e2ed" stroke="#d3e2ed" stroke-width="1.51"/><path d="M1057,-35L977,191L1229,184Z" fill="#d8e4ed" stroke="#d8e4ed" stroke-width="1.51"/><path d="M1026,1541L932,1658L1232,1695Z" fill="#bcd7ea" stroke="#bcd7ea" stroke-width="1.51"/><path d="M1075,1059L976,1236L1163,1295Z" fill="#ecf1f5" stroke="#ecf1f5" stroke-width="1.51"/><path d="M969,-264L1057,-35L1178,-283Z" fill="#bad6e8" stroke="#bad6e8" stroke-width="1.51"/><path d="M1006,863L1075,1059L1198,1004Z" fill="#f7f7f7" stroke="#f7f7f7" stroke-width="1.51"/><path d="M1163,1295L1026,1541L1193,1427Z" fill="#d4e4f0" stroke="#d4e4f0" stroke-width="1.51"/><path d="M976,1236L1026,1541L1163,1295Z" fill="#dae7f1" stroke="#dae7f1" stroke-width="1.51"/><path d="M1011,437L857,437L1018,677Z" fill="#f1f1f1" stroke="#f1f1f1" stroke-width="1.51"/><path d="M976,1236L822,1524L1026,1541Z" fill="#d1e2ef" stroke="#d1e2ef" stroke-width="1.51"/><path d="M776,131L977,191L1057,-35Z" fill="#d5e2eb" stroke="#d5e2eb" stroke-width="1.51"/><path d="M871,1227L976,1236L1075,1059Z" fill="#edf2f5" stroke="#edf2f5" stroke-width="1.51"/><path d="M811,978L871,1227L1075,1059Z" fill="#f6f6f7" stroke="#f6f6f7" stroke-width="1.51"/><path d="M1006,863L811,978L1075,1059Z" fill="#f6f6f6" stroke="#f6f6f6" stroke-width="1.51"/><path d="M871,1227L822,1524L976,1236Z" fill="#dce8f1" stroke="#dce8f1" stroke-width="1.51"/><path d="M977,191L857,437L1011,437Z" fill="#eeeeef" stroke="#eeeeef" stroke-width="1.51"/><path d="M969,-264L736,-178L1057,-35Z" fill="#bcd6e8" stroke="#bcd6e8" stroke-width="1.51"/><path d="M736,-178L750,6L1057,-35Z" fill="#c5dae8" stroke="#c5dae8" stroke-width="1.51"/><path d="M750,6L776,131L1057,-35Z" fill="#cfdeea" stroke="#cfdeea" stroke-width="1.51"/><path d="M798,1605L523,1750L932,1658Z" fill="#b1d2e7" stroke="#b1d2e7" stroke-width="1.51"/><path d="M857,437L747,536L1018,677Z" fill="#f0f0f0" stroke="#f0f0f0" stroke-width="1.51"/><path d="M810,812L1006,863L1018,677Z" fill="#f4f4f4" stroke="#f4f4f4" stroke-width="1.51"/><path d="M822,1524L932,1658L1026,1541Z" fill="#c1daeb" stroke="#c1daeb" stroke-width="1.51"/><path d="M747,536L810,812L1018,677Z" fill="#f1f1f1" stroke="#f1f1f1" stroke-width="1.51"/><path d="M-21,-319L440,-217L623,-271Z" fill="#93c3e2" stroke="#93c3e2" stroke-width="1.51"/><path d="M810,812L811,978L1006,863Z" fill="#f4f4f4" stroke="#f4f4f4" stroke-width="1.51"/><path d="M623,-271L736,-178L969,-264Z" fill="#b1d1e5" stroke="#b1d1e5" stroke-width="1.51"/><path d="M776,131L857,437L977,191Z" fill="#e4e9ed" stroke="#e4e9ed" stroke-width="1.51"/><path d="M822,1524L798,1605L932,1658Z" fill="#bfd8e9" stroke="#bfd8e9" stroke-width="1.51"/><path d="M776,131L618,230L857,437Z" fill="#e1e7ec" stroke="#e1e7ec" stroke-width="1.51"/><path d="M747,536L638,600L810,812Z" fill="#eceef0" stroke="#eceef0" stroke-width="1.51"/><path d="M618,230L577,405L857,437Z" fill="#e6eaed" stroke="#e6eaed" stroke-width="1.51"/><path d="M811,978L637,986L871,1227Z" fill="#f3f5f6" stroke="#f3f5f6" stroke-width="1.51"/><path d="M637,986L565,1232L871,1227Z" fill="#e7eef3" stroke="#e7eef3" stroke-width="1.51"/><path d="M620,1501L822,1524L871,1227Z" fill="#cfe1ee" stroke="#cfe1ee" stroke-width="1.51"/><path d="M565,1232L620,1501L871,1227Z" fill="#d4e4f0" stroke="#d4e4f0" stroke-width="1.51"/><path d="M577,405L747,536L857,437Z" fill="#e9ecee" stroke="#e9ecee" stroke-width="1.51"/><path d="M638,600L639,870L810,812Z" fill="#ebeff1" stroke="#ebeff1" stroke-width="1.51"/><path d="M810,812L639,870L811,978Z" fill="#eff2f3" stroke="#eff2f3" stroke-width="1.51"/><path d="M639,870L637,986L811,978Z" fill="#edf1f4" stroke="#edf1f4" stroke-width="1.51"/><path d="M620,1501L798,1605L822,1524Z" fill="#c0d8ea" stroke="#c0d8ea" stroke-width="1.51"/><path d="M620,1501L523,1750L798,1605Z" fill="#b1d2e7" stroke="#b1d2e7" stroke-width="1.51"/><path d="M736,-178L589,36L750,6Z" fill="#bfd7e8" stroke="#bfd7e8" stroke-width="1.51"/><path d="M750,6L589,36L776,131Z" fill="#cadce9" stroke="#cadce9" stroke-width="1.51"/><path d="M589,36L618,230L776,131Z" fill="#cfdeea" stroke="#cfdeea" stroke-width="1.51"/><path d="M577,405L638,600L747,536Z" fill="#e6ebef" stroke="#e6ebef" stroke-width="1.51"/><path d="M623,-271L589,36L736,-178Z" fill="#b3d2e6" stroke="#b3d2e6" stroke-width="1.51"/><path d="M-21,-319L112,-225L440,-217Z" fill="#89bfe1" stroke="#89bfe1" stroke-width="1.51"/><path d="M355,435L380,672L577,405Z" fill="#dae4ed" stroke="#dae4ed" stroke-width="1.51"/><path d="M440,-217L375,-80L589,36Z" fill="#aecfe5" stroke="#aecfe5" stroke-width="1.51"/><path d="M565,1232L426,1548L620,1501Z" fill="#c0daeb" stroke="#c0daeb" stroke-width="1.51"/><path d="M426,1548L523,1750L620,1501Z" fill="#abcfe7" stroke="#abcfe7" stroke-width="1.51"/><path d="M440,-217L589,36L623,-271Z" fill="#accee5" stroke="#accee5" stroke-width="1.51"/><path d="M430,1046L565,1232L637,986Z" fill="#e5eef4" stroke="#e5eef4" stroke-width="1.51"/><path d="M577,405L380,672L638,600Z" fill="#e0e8ee" stroke="#e0e8ee" stroke-width="1.51"/><path d="M380,672L402,815L638,600Z" fill="#dee8ef" stroke="#dee8ef" stroke-width="1.51"/><path d="M430,1046L637,986L639,870Z" fill="#e7eef3" stroke="#e7eef3" stroke-width="1.51"/><path d="M402,815L430,1046L639,870Z" fill="#e2ebf2" stroke="#e2ebf2" stroke-width="1.51"/><path d="M638,600L402,815L639,870Z" fill="#e4ebf1" stroke="#e4ebf1" stroke-width="1.51"/><path d="M355,435L577,405L618,230Z" fill="#dce5ec" stroke="#dce5ec" stroke-width="1.51"/><path d="M589,36L292,106L618,230Z" fill="#c5dae9" stroke="#c5dae9" stroke-width="1.51"/><path d="M292,106L355,435L618,230Z" fill="#cdddea" stroke="#cdddea" stroke-width="1.51"/><path d="M303,1207L229,1426L426,1548Z" fill="#b7d6ea" stroke="#b7d6ea" stroke-width="1.51"/><path d="M303,1207L426,1548L565,1232Z" fill="#c4dced" stroke="#c4dced" stroke-width="1.51"/><path d="M375,-80L292,106L589,36Z" fill="#b6d2e6" stroke="#b6d2e6" stroke-width="1.51"/><path d="M430,1046L303,1207L565,1232Z" fill="#d7e6f1" stroke="#d7e6f1" stroke-width="1.51"/><path d="M292,106L212,211L355,435Z" fill="#c5dae8" stroke="#c5dae8" stroke-width="1.51"/><path d="M426,1548L301,1752L523,1750Z" fill="#9bc8e4" stroke="#9bc8e4" stroke-width="1.51"/><path d="M102,848L178,1096L402,815Z" fill="#d3e4f0" stroke="#d3e4f0" stroke-width="1.51"/><path d="M190,1608L301,1752L426,1548Z" fill="#9ac7e4" stroke="#9ac7e4" stroke-width="1.51"/><path d="M402,815L178,1096L430,1046Z" fill="#dae8f2" stroke="#dae8f2" stroke-width="1.51"/><path d="M112,-225L375,-80L440,-217Z" fill="#9ac6e3" stroke="#9ac6e3" stroke-width="1.51"/><path d="M355,435L164,613L380,672Z" fill="#d3e2ed" stroke="#d3e2ed" stroke-width="1.51"/><path d="M178,1096L303,1207L430,1046Z" fill="#d5e5f1" stroke="#d5e5f1" stroke-width="1.51"/><path d="M229,1426L190,1608L426,1548Z" fill="#a5cde7" stroke="#a5cde7" stroke-width="1.51"/><path d="M164,613L102,848L380,672Z" fill="#cfe1ed" stroke="#cfe1ed" stroke-width="1.51"/><path d="M380,672L102,848L402,815Z" fill="#d5e4ef" stroke="#d5e4ef" stroke-width="1.51"/><path d="M136,464L164,613L355,435Z" fill="#cddeeb" stroke="#cddeeb" stroke-width="1.51"/><path d="M96,-112L292,106L375,-80Z" fill="#a7cce4" stroke="#a7cce4" stroke-width="1.51"/><path d="M112,-225L96,-112L375,-80Z" fill="#97c5e2" stroke="#97c5e2" stroke-width="1.51"/><path d="M212,211L136,464L355,435Z" fill="#ccdde9" stroke="#ccdde9" stroke-width="1.51"/><path d="M145,1278L229,1426L303,1207Z" fill="#bbd8ec" stroke="#bbd8ec" stroke-width="1.51"/><path d="M178,1096L145,1278L303,1207Z" fill="#c6deee" stroke="#c6deee" stroke-width="1.51"/><path d="M190,1608L-21,1703L301,1752Z" fill="#8ac0e2" stroke="#8ac0e2" stroke-width="1.51"/><path d="M96,-112L-46,17L212,211Z" fill="#a3cae4" stroke="#a3cae4" stroke-width="1.51"/><path d="M96,-112L212,211L292,106Z" fill="#adcfe5" stroke="#adcfe5" stroke-width="1.51"/><path d="M-79,366L136,464L212,211Z" fill="#c2d9e8" stroke="#c2d9e8" stroke-width="1.51"/><path d="M-35,1413L190,1608L229,1426Z" fill="#a0cbe6" stroke="#a0cbe6" stroke-width="1.51"/><path d="M145,1278L-35,1413L229,1426Z" fill="#add1e9" stroke="#add1e9" stroke-width="1.51"/><path d="M102,848L-90,1026L178,1096Z" fill="#cae0f0" stroke="#cae0f0" stroke-width="1.51"/><path d="M-46,17L-143,188L212,211Z" fill="#a9cde5" stroke="#a9cde5" stroke-width="1.51"/><path d="M-143,188L-79,366L212,211Z" fill="#b4d2e6" stroke="#b4d2e6" stroke-width="1.51"/><path d="M-49,813L102,848L164,613Z" fill="#c7dded" stroke="#c7dded" stroke-width="1.51"/><path d="M136,464L9,535L164,613Z" fill="#c7dcea" stroke="#c7dcea" stroke-width="1.51"/><path d="M-79,1194L145,1278L178,1096Z" fill="#bfdbee" stroke="#bfdbee" stroke-width="1.51"/><path d="M-35,1413L-21,1703L190,1608Z" fill="#91c4e3" stroke="#91c4e3" stroke-width="1.51"/><path d="M9,535L-49,813L164,613Z" fill="#c5dceb" stroke="#c5dceb" stroke-width="1.51"/><path d="M-90,1026L-79,1194L178,1096Z" fill="#c4def0" stroke="#c4def0" stroke-width="1.51"/><path d="M-79,366L9,535L136,464Z" fill="#c1d9e9" stroke="#c1d9e9" stroke-width="1.51"/><path d="M-79,1194L-35,1413L145,1278Z" fill="#afd3eb" stroke="#afd3eb" stroke-width="1.51"/><path d="M-49,813L-90,1026L102,848Z" fill="#c5ddee" stroke="#c5ddee" stroke-width="1.51"/><path d="M-21,-319L96,-112L112,-225Z" fill="#85bee0" stroke="#85bee0" stroke-width="1.51"/><path d="M-21,-319L-46,17L96,-112Z" fill="#8bc1e0" stroke="#8bc1e0" stroke-width="1.51"/><path d="M-332,-184L-342,-110L-46,17Z" fill="#80bce0" stroke="#80bce0" stroke-width="1.51"/><path d="M-79,1194L-204,1399L-35,1413Z" fill="#a3cee9" stroke="#a3cee9" stroke-width="1.51"/><path d="M-204,1399L-237,1677L-35,1413Z" fill="#8dc3e4" stroke="#8dc3e4" stroke-width="1.51"/><path d="M-35,1413L-237,1677L-21,1703Z" fill="#84bee1" stroke="#84bee1" stroke-width="1.51"/><path d="M-332,-184L-46,17L-21,-319Z" fill="#7fbbdf" stroke="#7fbbdf" stroke-width="1.51"/><path d="M-79,366L-215,442L9,535Z" fill="#bbd6e8" stroke="#bbd6e8" stroke-width="1.51"/><path d="M-215,442L-216,547L9,535Z" fill="#b8d5e8" stroke="#b8d5e8" stroke-width="1.51"/><path d="M-216,547L-49,813L9,535Z" fill="#bdd8ea" stroke="#bdd8ea" stroke-width="1.51"/><path d="M-216,547L-303,783L-49,813Z" fill="#b8d6ea" stroke="#b8d6ea" stroke-width="1.51"/><path d="M-303,783L-90,1026L-49,813Z" fill="#bcd9ec" stroke="#bcd9ec" stroke-width="1.51"/><path d="M-342,-110L-143,188L-46,17Z" fill="#92c3e2" stroke="#92c3e2" stroke-width="1.51"/><path d="M-303,783L-322,1070L-90,1026Z" fill="#b8d7ed" stroke="#b8d7ed" stroke-width="1.51"/><path d="M-143,188L-266,253L-79,366Z" fill="#accee5" stroke="#accee5" stroke-width="1.51"/><path d="M-266,253L-215,442L-79,366Z" fill="#b3d2e6" stroke="#b3d2e6" stroke-width="1.51"/><path d="M-303,1281L-204,1399L-79,1194Z" fill="#a3cee9" stroke="#a3cee9" stroke-width="1.51"/><path d="M-90,1026L-322,1070L-79,1194Z" fill="#bcdaee" stroke="#bcdaee" stroke-width="1.51"/><path d="M-322,1070L-303,1281L-79,1194Z" fill="#aed3ec" stroke="#aed3ec" stroke-width="1.51"/><path d="M-342,-110L-266,253L-143,188Z" fill="#96c4e2" stroke="#96c4e2" stroke-width="1.51"/><path d="M-303,1281L-237,1677L-204,1399Z" fill="#8cc3e4" stroke="#8cc3e4" stroke-width="1.51"/><path d="M-303,783L-216,547L-215,442Z" fill="#b3d3e8" stroke="#b3d3e8" stroke-width="1.51"/><path d="M-266,253L-303,783L-215,442Z" fill="#b1d2e7" stroke="#b1d2e7" stroke-width="1.51"/><path d="M-342,-110L-303,783L-266,253Z" fill="#a8cce4" stroke="#a8cce4" stroke-width="1.51"/><path d="M-342,-110L-322,1070L-303,783Z" fill="#aed1e7" stroke="#aed1e7" stroke-width="1.51"/></svg>